<svg xmlns="http://www.w3.org/2000/svg" viewBox="0 0 800 200" width="800" height="200">
  <defs>
    <clipPath id="r"><rect width="800" height="200" rx="16"/></clipPath>
    <linearGradient id="bg" x1="0%" y1="0%" x2="100%" y2="100%">
      <stop offset="0%" stop-color="#0a0a0f"/><stop offset="100%" stop-color="#14141f"/>
    </linearGradient>
    <pattern id="panot" patternUnits="userSpaceOnUse" x="377.0" y="114" width="46" height="46">
      <rect width="46" height="46" fill="#8a8277"/>
      <g fill="#aaa294" transform="translate(0.9 0.9)"><path d="M0 -3.5 C-5.2 -5.5 -7.6 -9.5 -7.2 -13.5 C-6.8 -17.8 -3.6 -20.2 0 -20.2 C3.6 -20.2 6.8 -17.8 7.2 -13.5 C7.6 -9.5 5.2 -5.5 0 -3.5Z" transform="translate(23.0 23.0) rotate(0)"/><path d="M0 -3.5 C-5.2 -5.5 -7.6 -9.5 -7.2 -13.5 C-6.8 -17.8 -3.6 -20.2 0 -20.2 C3.6 -20.2 6.8 -17.8 7.2 -13.5 C7.6 -9.5 5.2 -5.5 0 -3.5Z" transform="translate(23.0 23.0) rotate(90)"/><path d="M0 -3.5 C-5.2 -5.5 -7.6 -9.5 -7.2 -13.5 C-6.8 -17.8 -3.6 -20.2 0 -20.2 C3.6 -20.2 6.8 -17.8 7.2 -13.5 C7.6 -9.5 5.2 -5.5 0 -3.5Z" transform="translate(23.0 23.0) rotate(180)"/><path d="M0 -3.5 C-5.2 -5.5 -7.6 -9.5 -7.2 -13.5 C-6.8 -17.8 -3.6 -20.2 0 -20.2 C3.6 -20.2 6.8 -17.8 7.2 -13.5 C7.6 -9.5 5.2 -5.5 0 -3.5Z" transform="translate(23.0 23.0) rotate(270)"/><circle cx="23.0" cy="23.0" r="4.2"/><circle cx="0" cy="0" r="5.6"/><circle cx="46" cy="0" r="5.6"/><circle cx="0" cy="46" r="5.6"/><circle cx="46" cy="46" r="5.6"/></g>
      <g fill="#48423b"><path d="M0 -3.5 C-5.2 -5.5 -7.6 -9.5 -7.2 -13.5 C-6.8 -17.8 -3.6 -20.2 0 -20.2 C3.6 -20.2 6.8 -17.8 7.2 -13.5 C7.6 -9.5 5.2 -5.5 0 -3.5Z" transform="translate(23.0 23.0) rotate(0)"/><path d="M0 -3.5 C-5.2 -5.5 -7.6 -9.5 -7.2 -13.5 C-6.8 -17.8 -3.6 -20.2 0 -20.2 C3.6 -20.2 6.8 -17.8 7.2 -13.5 C7.6 -9.5 5.2 -5.5 0 -3.5Z" transform="translate(23.0 23.0) rotate(90)"/><path d="M0 -3.5 C-5.2 -5.5 -7.6 -9.5 -7.2 -13.5 C-6.8 -17.8 -3.6 -20.2 0 -20.2 C3.6 -20.2 6.8 -17.8 7.2 -13.5 C7.6 -9.5 5.2 -5.5 0 -3.5Z" transform="translate(23.0 23.0) rotate(180)"/><path d="M0 -3.5 C-5.2 -5.5 -7.6 -9.5 -7.2 -13.5 C-6.8 -17.8 -3.6 -20.2 0 -20.2 C3.6 -20.2 6.8 -17.8 7.2 -13.5 C7.6 -9.5 5.2 -5.5 0 -3.5Z" transform="translate(23.0 23.0) rotate(270)"/><circle cx="23.0" cy="23.0" r="4.2"/><circle cx="0" cy="0" r="5.6"/><circle cx="46" cy="0" r="5.6"/><circle cx="0" cy="46" r="5.6"/><circle cx="46" cy="46" r="5.6"/></g>
      <path d="M0 0.6 H46 M0.6 0 V46" stroke="#2c2824" stroke-width="1.3"/>
    </pattern>
    <linearGradient id="fade" x1="0" y1="0" x2="0" y2="1">
      <stop offset="0%" stop-color="#fff" stop-opacity="0"/>
      <stop offset="100%" stop-color="#fff" stop-opacity="1"/>
    </linearGradient>
    <mask id="mk" maskUnits="userSpaceOnUse" x="0" y="0" width="800" height="200">
      <rect x="0" y="104" width="800" height="96" fill="url(#fade)"/>
    </mask>
    <radialGradient id="lamp" gradientUnits="userSpaceOnUse" cx="400" cy="210" r="420" gradientTransform="translate(400 210) scale(1 0.34) translate(-400 -210)">
      <stop offset="0%" stop-color="#f0b46a" stop-opacity="0.32"/>
      <stop offset="60%" stop-color="#0a0a0f" stop-opacity="0.35"/>
      <stop offset="100%" stop-color="#0a0a0f" stop-opacity="0.75"/>
    </radialGradient>
    <linearGradient id="rule" x1="0" y1="0" x2="1" y2="0">
      <stop offset="0%" stop-color="#e0a868" stop-opacity="0"/><stop offset="50%" stop-color="#e0a868"/><stop offset="100%" stop-color="#e0a868" stop-opacity="0"/>
    </linearGradient>
  </defs>
  <g clip-path="url(#r)">
    <rect width="800" height="200" fill="url(#bg)"/>
    <g mask="url(#mk)">
      <rect y="100" width="800" height="100" fill="url(#panot)"/>
      <rect y="100" width="800" height="100" fill="url(#lamp)"/>
    </g>
    <rect width="800" height="2" fill="#e0a868" opacity="0.5"/>
    <text x="400" y="70" text-anchor="middle" font-family="system-ui, -apple-system, 'Segoe UI', Helvetica, Arial, sans-serif" font-size="44" fill="#fff" font-weight="700" letter-spacing="0.5">awesome-catalunya</text>
    <rect x="310" y="83" width="180" height="2" rx="1" fill="url(#rule)" opacity="0.8"/>
    <text x="400" y="106" text-anchor="middle" font-family="system-ui, -apple-system, 'Segoe UI', Helvetica, Arial, sans-serif" font-size="13" fill="#fff" fill-opacity="0.65" font-weight="400" letter-spacing="2.6">SOFTWARE OPEN SOURCE PER A CATALUNYA</text>
  </g>
</svg>
